<svg xmlns="http://www.w3.org/2000/svg" xmlns:xlink="http://www.w3.org/1999/xlink" width="1920" height="1980.772" viewBox="0 0 1920 1980.772"><defs><style>.a{opacity:0.25;fill:url(#a);}</style><radialGradient id="a" cx="0.5" cy="0.5" r="0.493" gradientTransform="translate(-0.015) scale(1.03 1)" gradientUnits="objectBoundingBox"><stop offset="0" stop-color="#0086aa"/><stop offset="0.138" stop-color="#0080a4"/><stop offset="0.313" stop-color="#017294"/><stop offset="0.509" stop-color="#025a7a"/><stop offset="0.72" stop-color="#043956"/><stop offset="0.94" stop-color="#060f27"/><stop offset="1" stop-color="#07031a"/></radialGradient></defs><path class="a" d="M-2791.734,2782.5V4763.272h1920V2782.5Zm1917,50.712h-46.159V2785.5h46.159Zm-980.084,963.53V3749.03h46.159v47.712Zm46.159,3v47.712h-46.159v-47.712Zm-49.154-3h-46.159V3749.03h46.159Zm3-50.712v-47.713h46.159v47.713Zm49.154,3h46.159v47.712h-46.159Zm0-3v-47.713h46.159v47.713Zm0-50.713V3647.6h46.159v47.712Zm-3,0h-46.159V3647.6h46.159Zm-49.154,0h-46.159V3647.6h46.159Zm0,3v47.713h-46.159v-47.713Zm-49.154,47.713h-46.159v-47.713h46.159Zm0,3v47.712h-46.159V3749.03Zm0,50.712v47.712h-46.159v-47.712Zm3,0h46.159v47.712h-46.159Zm46.159,50.712v47.712h-46.159v-47.712Zm3,0h46.159v47.712h-46.159Zm49.154,0h46.159v47.712h-46.159Zm0-3v-47.712h46.159v47.712Zm49.154-47.712h46.158v47.712h-46.158Zm0-3V3749.03h46.158v47.712Zm0-50.712v-47.713h46.158v47.713Zm0-50.713V3647.6h46.158v47.712Zm0-50.712v-47.711h46.158V3644.6Zm-3,0h-46.159v-47.711h46.159Zm-49.154,0h-46.159v-47.711h46.159Zm-49.154,0h-46.159v-47.711h46.159Zm-49.154,0h-46.159v-47.711h46.159Zm0,3v47.712h-46.159V3647.6Zm-49.154,47.712h-46.158V3647.6h46.158Zm0,3v47.713h-46.158v-47.713Zm0,50.713v47.712h-46.158V3749.03Zm0,50.712v47.712h-46.158v-47.712Zm0,50.712v47.712h-46.158v-47.712Zm3,0h46.159v47.712h-46.159Zm46.159,50.712v47.712h-46.159v-47.712Zm3,0h46.159v47.712h-46.159Zm49.154,0h46.159v47.712h-46.159Zm49.154,0h46.159v47.712h-46.159Zm49.154,0h46.158v47.712h-46.158Zm0-3v-47.712h46.158v47.712Zm49.153-47.712h46.159v47.712h-46.159Zm0-3v-47.712h46.159v47.712Zm0-50.712V3749.03h46.159v47.712Zm0-50.712v-47.713h46.159v47.713Zm0-50.713V3647.6h46.159v47.712Zm0-50.712v-47.711h46.159V3644.6Zm0-50.711v-47.712h46.159v47.712Zm-3,0h-46.158v-47.712h46.158Zm-49.153,0h-46.159v-47.712h46.159Zm-49.154,0h-46.159v-47.712h46.159Zm-49.154,0h-46.159v-47.712h46.159Zm-49.154,0h-46.159v-47.712h46.159Zm-49.154,0h-46.158v-47.712h46.158Zm0,3V3644.6h-46.158v-47.711Zm-49.153,47.711h-46.159v-47.711h46.159Zm0,3v47.712h-46.159V3647.6Zm0,50.712v47.713h-46.159v-47.713Zm0,50.713v47.712h-46.159V3749.03Zm0,50.712v47.712h-46.159v-47.712Zm0,50.712v47.712h-46.159v-47.712Zm0,50.712v47.712h-46.159v-47.712Zm3,0h46.158v47.712h-46.158Zm46.158,50.712v47.713h-46.158v-47.713Zm3,0h46.159v47.713h-46.159Zm49.154,0h46.159v47.713h-46.159Zm49.154,0h46.159v47.713h-46.159Zm49.154,0h46.159v47.713h-46.159Zm49.154,0h46.158v47.713h-46.158Zm49.153,0h46.159v47.713h-46.159Zm0-3v-47.712h46.159v47.712Zm49.154-47.712h46.159v47.712H-1658.2Zm0-3v-47.712h46.159v47.712Zm0-50.712v-47.712h46.159v47.712Zm0-50.712V3749.03h46.159v47.712Zm0-50.712v-47.713h46.159v47.713Zm0-50.713V3647.6h46.159v47.712Zm0-50.712v-47.711h46.159V3644.6Zm0-50.711v-47.712h46.159v47.712Zm0-50.712V3495.47h46.159v47.712Zm-3,0h-46.159V3495.47h46.159Zm-49.154,0h-46.158V3495.47h46.158Zm-49.153,0h-46.159V3495.47h46.159Zm-49.154,0h-46.159V3495.47h46.159Zm-49.154,0h-46.159V3495.47h46.159Zm-49.154,0h-46.159V3495.47h46.159Zm-49.154,0h-46.158V3495.47h46.158Zm-49.153,0h-46.159V3495.47h46.159Zm0,3v47.712h-46.159v-47.712Zm-49.154,47.712h-46.159v-47.712h46.159Zm0,3V3644.6h-46.159v-47.711Zm0,50.711v47.712h-46.159V3647.6Zm0,50.712v47.713h-46.159v-47.713Zm0,50.713v47.712h-46.159V3749.03Zm0,50.712v47.712h-46.159v-47.712Zm0,50.712v47.712h-46.159v-47.712Zm0,50.712v47.712h-46.159v-47.712Zm0,50.712v47.713h-46.159v-47.713Zm3,0h46.159v47.713h-46.159Zm46.159,50.713V4050.3h-46.159v-47.712Zm3,0h46.158V4050.3h-46.158Zm49.153,0h46.159V4050.3h-46.159Zm49.154,0h46.159V4050.3h-46.159Zm49.154,0h46.159V4050.3h-46.159Zm49.154,0h46.159V4050.3h-46.159Zm49.154,0h46.158V4050.3h-46.158Zm49.153,0h46.159V4050.3h-46.159Zm49.154,0h46.159V4050.3H-1658.2Zm0-3v-47.713h46.159v47.713Zm49.154-47.713h46.159v47.713h-46.159Zm0-3v-47.712h46.159v47.712Zm0-50.712v-47.712h46.159v47.712Zm0-50.712v-47.712h46.159v47.712Zm0-50.712V3749.03h46.159v47.712Zm0-50.712v-47.713h46.159v47.713Zm0-50.713V3647.6h46.159v47.712Zm0-50.712v-47.711h46.159V3644.6Zm0-50.711v-47.712h46.159v47.712Zm0-50.712V3495.47h46.159v47.712Zm0-50.712v-47.712h46.159v47.712Zm-3,0H-1658.2v-47.712h46.159Zm-49.154,0h-46.159v-47.712h46.159Zm-49.154,0h-46.158v-47.712h46.158Zm-49.153,0h-46.159v-47.712h46.159Zm-49.154,0h-46.159v-47.712h46.159Zm-49.154,0h-46.159v-47.712h46.159Zm-49.154,0h-46.159v-47.712h46.159Zm-49.154,0h-46.158v-47.712h46.158Zm-49.153,0h-46.159v-47.712h46.159Zm-49.154,0h-46.159v-47.712h46.159Zm0,3v47.712h-46.159V3495.47Zm-49.154,47.712h-46.158V3495.47h46.158Zm0,3v47.712h-46.158v-47.712Zm0,50.712V3644.6h-46.158v-47.711Zm0,50.711v47.712h-46.158V3647.6Zm0,50.712v47.713h-46.158v-47.713Zm0,50.713v47.712h-46.158V3749.03Zm0,50.712v47.712h-46.158v-47.712Zm0,50.712v47.712h-46.158v-47.712Zm0,50.712v47.712h-46.158v-47.712Zm0,50.712v47.713h-46.158v-47.713Zm0,50.713V4050.3h-46.158v-47.712Zm3,0h46.159V4050.3h-46.159Zm46.159,50.712v47.712h-46.159V4053.3Zm3,0h46.159v47.712h-46.159Zm49.154,0h46.158v47.712h-46.158Zm49.153,0h46.159v47.712h-46.159Zm49.154,0h46.159v47.712h-46.159Zm49.154,0h46.159v47.712h-46.159Zm49.154,0h46.159v47.712h-46.159Zm49.154,0h46.158v47.712h-46.158Zm49.153,0h46.159v47.712h-46.159Zm49.154,0h46.159v47.712H-1658.2Zm49.154,0h46.159v47.712h-46.159Zm0-3v-47.712h46.159V4050.3Zm49.154-47.712h46.159V4050.3h-46.159Zm0-3v-47.713h46.159v47.713Zm0-50.713v-47.712h46.159v47.712Zm0-50.712v-47.712h46.159v47.712Zm0-50.712v-47.712h46.159v47.712Zm0-50.712V3749.03h46.159v47.712Zm0-50.712v-47.713h46.159v47.713Zm0-50.713V3647.6h46.159v47.712Zm0-50.712v-47.711h46.159V3644.6Zm0-50.711v-47.712h46.159v47.712Zm0-50.712V3495.47h46.159v47.712Zm0-50.712v-47.712h46.159v47.712Zm0-50.712v-47.713h46.159v47.713Zm-3,0h-46.159v-47.713h46.159Zm-49.154,0H-1658.2v-47.713h46.159Zm-49.154,0h-46.159v-47.713h46.159Zm-49.154,0h-46.158v-47.713h46.158Zm-49.153,0h-46.159v-47.713h46.159Zm-49.154,0h-46.159v-47.713h46.159Zm-49.154,0h-46.159v-47.713h46.159Zm-49.154,0h-46.159v-47.713h46.159Zm-49.154,0h-46.158v-47.713h46.158Zm-49.153,0h-46.159v-47.713h46.159Zm-49.154,0h-46.159v-47.713h46.159Zm-49.154,0h-46.158v-47.713h46.158Zm0,3v47.712h-46.158v-47.712Zm-49.154,47.712h-46.158v-47.712h46.158Zm0,3v47.712h-46.158V3495.47Zm0,50.712v47.712h-46.158v-47.712Zm0,50.712V3644.6h-46.158v-47.711Zm0,50.711v47.712h-46.158V3647.6Zm0,50.712v47.713h-46.158v-47.713Zm0,50.713v47.712h-46.158V3749.03Zm0,50.712v47.712h-46.158v-47.712Zm0,50.712v47.712h-46.158v-47.712Zm0,50.712v47.712h-46.158v-47.712Zm0,50.712v47.713h-46.158v-47.713Zm0,50.713V4050.3h-46.158v-47.712Zm0,50.712v47.712h-46.158V4053.3Zm3,0h46.158v47.712h-46.158Zm46.158,50.712v47.712h-46.158v-47.712Zm3,0h46.159v47.712h-46.159Zm49.154,0h46.159v47.712h-46.159Zm49.154,0h46.158v47.712h-46.158Zm49.153,0h46.159v47.712h-46.159Zm49.154,0h46.159v47.712h-46.159Zm49.154,0h46.159v47.712h-46.159Zm49.154,0h46.159v47.712h-46.159Zm49.154,0h46.158v47.712h-46.158Zm49.153,0h46.159v47.712h-46.159Zm49.154,0h46.159v47.712H-1658.2Zm49.154,0h46.159v47.712h-46.159Zm49.154,0h46.159v47.712h-46.159Zm0-3V4053.3h46.159v47.712Zm49.154-47.712h46.158v47.712h-46.158Zm0-3v-47.712h46.158V4050.3Zm0-50.712v-47.713h46.158v47.713Zm0-50.713v-47.712h46.158v47.712Zm0-50.712v-47.712h46.158v47.712Zm0-50.712v-47.712h46.158v47.712Zm0-50.712V3749.03h46.158v47.712Zm0-50.712v-47.713h46.158v47.713Zm0-50.713V3647.6h46.158v47.712Zm0-50.712v-47.711h46.158V3644.6Zm0-50.711v-47.712h46.158v47.712Zm0-50.712V3495.47h46.158v47.712Zm0-50.712v-47.712h46.158v47.712Zm0-50.712v-47.713h46.158v47.713Zm0-50.713v-47.712h46.158v47.712Zm-3,0h-46.159v-47.712h46.159Zm-49.154,0h-46.159v-47.712h46.159Zm-49.154,0H-1658.2v-47.712h46.159Zm-49.154,0h-46.159v-47.712h46.159Zm-49.154,0h-46.158v-47.712h46.158Zm-49.153,0h-46.159v-47.712h46.159Zm-49.154,0h-46.159v-47.712h46.159Zm-49.154,0h-46.159v-47.712h46.159Zm-49.154,0h-46.159v-47.712h46.159Zm-49.154,0h-46.158v-47.712h46.158Zm-49.153,0h-46.159v-47.712h46.159Zm-49.154,0h-46.159v-47.712h46.159Zm-49.154,0h-46.158v-47.712h46.158Zm-49.154,0h-46.158v-47.712h46.158Zm0,3v47.713h-46.158v-47.713Zm-49.153,47.713h-46.159v-47.713h46.159Zm0,3v47.712h-46.159v-47.712Zm0,50.712v47.712h-46.159V3495.47Zm0,50.712v47.712h-46.159v-47.712Zm0,50.712V3644.6h-46.159v-47.711Zm0,50.711v47.712h-46.159V3647.6Zm0,50.712v47.713h-46.159v-47.713Zm0,50.713v47.712h-46.159V3749.03Zm0,50.712v47.712h-46.159v-47.712Zm0,50.712v47.712h-46.159v-47.712Zm0,50.712v47.712h-46.159v-47.712Zm0,50.712v47.713h-46.159v-47.713Zm0,50.713V4050.3h-46.159v-47.712Zm0,50.712v47.712h-46.159V4053.3Zm0,50.712v47.712h-46.159v-47.712Zm3,0h46.158v47.712h-46.158Zm46.158,50.712v47.711h-46.158v-47.711Zm3,0h46.158v47.711h-46.158Zm49.153,0h46.159v47.711h-46.159Zm49.154,0h46.159v47.711h-46.159Zm49.154,0h46.158v47.711h-46.158Zm49.153,0h46.159v47.711h-46.159Zm49.154,0h46.159v47.711h-46.159Zm49.154,0h46.159v47.711h-46.159Zm49.154,0h46.159v47.711h-46.159Zm49.154,0h46.158v47.711h-46.158Zm49.153,0h46.159v47.711h-46.159Zm49.154,0h46.159v47.711H-1658.2Zm49.154,0h46.159v47.711h-46.159Zm49.154,0h46.159v47.711h-46.159Zm49.154,0h46.158v47.711h-46.158Zm0-3v-47.712h46.158v47.712Zm49.153-47.712h46.159v47.712h-46.159Zm0-3V4053.3h46.159v47.712Zm0-50.712v-47.712h46.159V4050.3Zm0-50.712v-47.713h46.159v47.713Zm0-50.713v-47.712h46.159v47.712Zm0-50.712v-47.712h46.159v47.712Zm0-50.712v-47.712h46.159v47.712Zm0-50.712V3749.03h46.159v47.712Zm0-50.712v-47.713h46.159v47.713Zm0-50.713V3647.6h46.159v47.712Zm0-50.712v-47.711h46.159V3644.6Zm0-50.711v-47.712h46.159v47.712Zm0-50.712V3495.47h46.159v47.712Zm0-50.712v-47.712h46.159v47.712Zm0-50.712v-47.713h46.159v47.713Zm0-50.713v-47.712h46.159v47.712Zm0-50.712v-47.712h46.159v47.712Zm-3,0h-46.158v-47.712h46.158Zm-49.153,0h-46.159v-47.712h46.159Zm-49.154,0h-46.159v-47.712h46.159Zm-49.154,0H-1658.2v-47.712h46.159Zm-49.154,0h-46.159v-47.712h46.159Zm-49.154,0h-46.158v-47.712h46.158Zm-49.153,0h-46.159v-47.712h46.159Zm-49.154,0h-46.159v-47.712h46.159Zm-49.154,0h-46.159v-47.712h46.159Zm-49.154,0h-46.159v-47.712h46.159Zm-49.154,0h-46.158v-47.712h46.158Zm-49.153,0h-46.159v-47.712h46.159Zm-49.154,0h-46.159v-47.712h46.159Zm-49.154,0h-46.158v-47.712h46.158Zm-49.154,0h-46.158v-47.712h46.158Zm-49.153,0h-46.159v-47.712h46.159Zm0,3v47.712h-46.159v-47.712Zm-49.154,47.712H-2297.2v-47.712h46.159Zm0,3v47.713H-2297.2v-47.713Zm0,50.713v47.712H-2297.2v-47.712Zm0,50.712v47.712H-2297.2V3495.47Zm0,50.712v47.712H-2297.2v-47.712Zm0,50.712V3644.6H-2297.2v-47.711Zm0,50.711v47.712H-2297.2V3647.6Zm0,50.712v47.713H-2297.2v-47.713Zm0,50.713v47.712H-2297.2V3749.03Zm0,50.712v47.712H-2297.2v-47.712Zm0,50.712v47.712H-2297.2v-47.712Zm0,50.712v47.712H-2297.2v-47.712Zm0,50.712v47.713H-2297.2v-47.713Zm0,50.713V4050.3H-2297.2v-47.712Zm0,50.712v47.712H-2297.2V4053.3Zm0,50.712v47.712H-2297.2v-47.712Zm0,50.712v47.711H-2297.2v-47.711Zm3,0h46.159v47.711h-46.159Zm46.159,50.711v47.713h-46.159v-47.713Zm3,0h46.158v47.713h-46.158Zm49.154,0h46.158v47.713h-46.158Zm49.153,0h46.159v47.713h-46.159Zm49.154,0h46.159v47.713h-46.159Zm49.154,0h46.158v47.713h-46.158Zm49.153,0h46.159v47.713h-46.159Zm49.154,0h46.159v47.713h-46.159Zm49.154,0h46.159v47.713h-46.159Zm49.154,0h46.159v47.713h-46.159Zm49.154,0h46.158v47.713h-46.158Zm49.153,0h46.159v47.713h-46.159Zm49.154,0h46.159v47.713H-1658.2Zm49.154,0h46.159v47.713h-46.159Zm49.154,0h46.159v47.713h-46.159Zm49.154,0h46.158v47.713h-46.158Zm49.153,0h46.159v47.713h-46.159Zm0-3v-47.711h46.159v47.711Zm49.154-47.711h46.159v47.711h-46.159Zm0-3v-47.712h46.159v47.712Zm0-50.712V4053.3h46.159v47.712Zm0-50.712v-47.712h46.159V4050.3Zm0-50.712v-47.713h46.159v47.713Zm0-50.713v-47.712h46.159v47.712Zm0-50.712v-47.712h46.159v47.712Zm0-50.712v-47.712h46.159v47.712Zm0-50.712V3749.03h46.159v47.712Zm0-50.712v-47.713h46.159v47.713Zm0-50.713V3647.6h46.159v47.712Zm0-50.712v-47.711h46.159V3644.6Zm0-50.711v-47.712h46.159v47.712Zm0-50.712V3495.47h46.159v47.712Zm0-50.712v-47.712h46.159v47.712Zm0-50.712v-47.713h46.159v47.713Zm0-50.713v-47.712h46.159v47.712Zm0-50.712v-47.712h46.159v47.712Zm0-50.712v-47.712h46.159v47.712Zm-3,0h-46.159v-47.712h46.159Zm-49.154,0h-46.158v-47.712h46.158Zm-49.153,0h-46.159v-47.712h46.159Zm-49.154,0h-46.159v-47.712h46.159Zm-49.154,0H-1658.2v-47.712h46.159Zm-49.154,0h-46.159v-47.712h46.159Zm-49.154,0h-46.158v-47.712h46.158Zm-49.153,0h-46.159v-47.712h46.159Zm-49.154,0h-46.159v-47.712h46.159Zm-49.154,0h-46.159v-47.712h46.159Zm-49.154,0h-46.159v-47.712h46.159Zm-49.154,0h-46.158v-47.712h46.158Zm-49.153,0h-46.159v-47.712h46.159Zm-49.154,0h-46.159v-47.712h46.159Zm-49.154,0h-46.158v-47.712h46.158Zm-49.154,0h-46.158v-47.712h46.158Zm-49.153,0h-46.159v-47.712h46.159Zm-49.154,0H-2297.2v-47.712h46.159Zm0,3v47.712H-2297.2v-47.712Zm-49.154,47.712h-46.159v-47.712h46.159Zm0,3v47.712h-46.159v-47.712Zm0,50.712v47.713h-46.159v-47.713Zm0,50.713v47.712h-46.159v-47.712Zm0,50.712v47.712h-46.159V3495.47Zm0,50.712v47.712h-46.159v-47.712Zm0,50.712V3644.6h-46.159v-47.711Zm0,50.711v47.712h-46.159V3647.6Zm0,50.712v47.713h-46.159v-47.713Zm0,50.713v47.712h-46.159V3749.03Zm0,50.712v47.712h-46.159v-47.712Zm0,50.712v47.712h-46.159v-47.712Zm0,50.712v47.712h-46.159v-47.712Zm0,50.712v47.713h-46.159v-47.713Zm0,50.713V4050.3h-46.159v-47.712Zm0,50.712v47.712h-46.159V4053.3Zm0,50.712v47.712h-46.159v-47.712Zm0,50.712v47.711h-46.159v-47.711Zm0,50.711v47.713h-46.159v-47.713Zm3,0h46.159v47.713H-2297.2Zm46.159,50.713v47.712H-2297.2v-47.712Zm3,0h46.159v47.712h-46.159Zm49.154,0h46.158v47.712h-46.158Zm49.154,0h46.158v47.712h-46.158Zm49.153,0h46.159v47.712h-46.159Zm49.154,0h46.159v47.712h-46.159Zm49.154,0h46.158v47.712h-46.158Zm49.153,0h46.159v47.712h-46.159Zm49.154,0h46.159v47.712h-46.159Zm49.154,0h46.159v47.712h-46.159Zm49.154,0h46.159v47.712h-46.159Zm49.154,0h46.158v47.712h-46.158Zm49.153,0h46.159v47.712h-46.159Zm49.154,0h46.159v47.712H-1658.2Zm49.154,0h46.159v47.712h-46.159Zm49.154,0h46.159v47.712h-46.159Zm49.154,0h46.158v47.712h-46.158Zm49.153,0h46.159v47.712h-46.159Zm49.154,0h46.159v47.712h-46.159Zm0-3v-47.713h46.159v47.713Zm49.154-47.713h46.158v47.713h-46.158Zm0-3v-47.711h46.158v47.711Zm0-50.711v-47.712h46.158v47.712Zm0-50.712V4053.3h46.158v47.712Zm0-50.712v-47.712h46.158V4050.3Zm0-50.712v-47.713h46.158v47.713Zm0-50.713v-47.712h46.158v47.712Zm0-50.712v-47.712h46.158v47.712Zm0-50.712v-47.712h46.158v47.712Zm0-50.712V3749.03h46.158v47.712Zm0-50.712v-47.713h46.158v47.713Zm0-50.713V3647.6h46.158v47.712Zm0-50.712v-47.711h46.158V3644.6Zm0-50.711v-47.712h46.158v47.712Zm0-50.712V3495.47h46.158v47.712Zm0-50.712v-47.712h46.158v47.712Zm0-50.712v-47.713h46.158v47.713Zm0-50.713v-47.712h46.158v47.712Zm0-50.712v-47.712h46.158v47.712Zm0-50.712v-47.712h46.158v47.712Zm0-50.712V3191.2h46.158v47.712Zm-3,0h-46.159V3191.2h46.159Zm-49.154,0h-46.159V3191.2h46.159Zm-49.154,0h-46.158V3191.2h46.158Zm-49.153,0h-46.159V3191.2h46.159Zm-49.154,0h-46.159V3191.2h46.159Zm-49.154,0H-1658.2V3191.2h46.159Zm-49.154,0h-46.159V3191.2h46.159Zm-49.154,0h-46.158V3191.2h46.158Zm-49.153,0h-46.159V3191.2h46.159Zm-49.154,0h-46.159V3191.2h46.159Zm-49.154,0h-46.159V3191.2h46.159Zm-49.154,0h-46.159V3191.2h46.159Zm-49.154,0h-46.158V3191.2h46.158Zm-49.153,0h-46.159V3191.2h46.159Zm-49.154,0h-46.159V3191.2h46.159Zm-49.154,0h-46.158V3191.2h46.158Zm-49.154,0h-46.158V3191.2h46.158Zm-49.153,0h-46.159V3191.2h46.159Zm-49.154,0H-2297.2V3191.2h46.159Zm-49.154,0h-46.159V3191.2h46.159Zm0,3v47.712h-46.159v-47.712Zm-49.154,47.712h-46.158v-47.712h46.158Zm0,3v47.712h-46.158v-47.712Zm0,50.712v47.712h-46.158v-47.712Zm0,50.712v47.713h-46.158v-47.713Zm0,50.713v47.712h-46.158v-47.712Zm0,50.712v47.712h-46.158V3495.47Zm0,50.712v47.712h-46.158v-47.712Zm0,50.712V3644.6h-46.158v-47.711Zm0,50.711v47.712h-46.158V3647.6Zm0,50.712v47.713h-46.158v-47.713Zm0,50.713v47.712h-46.158V3749.03Zm0,50.712v47.712h-46.158v-47.712Zm0,50.712v47.712h-46.158v-47.712Zm0,50.712v47.712h-46.158v-47.712Zm0,50.712v47.713h-46.158v-47.713Zm0,50.713V4050.3h-46.158v-47.712Zm0,50.712v47.712h-46.158V4053.3Zm0,50.712v47.712h-46.158v-47.712Zm0,50.712v47.711h-46.158v-47.711Zm0,50.711v47.713h-46.158v-47.713Zm0,50.713v47.712h-46.158v-47.712Zm3,0h46.159v47.712h-46.159Zm46.159,50.712v47.712h-46.159v-47.712Zm3,0h46.159v47.712H-2297.2Zm49.154,0h46.159v47.712h-46.159Zm49.154,0h46.158v47.712h-46.158Zm49.154,0h46.158v47.712h-46.158Zm49.153,0h46.159v47.712h-46.159Zm49.154,0h46.159v47.712h-46.159Zm49.154,0h46.158v47.712h-46.158Zm49.153,0h46.159v47.712h-46.159Zm49.154,0h46.159v47.712h-46.159Zm49.154,0h46.159v47.712h-46.159Zm49.154,0h46.159v47.712h-46.159Zm49.154,0h46.158v47.712h-46.158Zm49.153,0h46.159v47.712h-46.159Zm49.154,0h46.159v47.712H-1658.2Zm49.154,0h46.159v47.712h-46.159Zm49.154,0h46.159v47.712h-46.159Zm49.154,0h46.158v47.712h-46.158Zm49.153,0h46.159v47.712h-46.159Zm49.154,0h46.159v47.712h-46.159Zm49.154,0h46.158v47.712h-46.158Zm0-3v-47.712h46.158v47.712Zm49.153-47.712h46.159v47.712h-46.159Zm0-3v-47.713h46.159v47.713Zm0-50.713v-47.711h46.159v47.711Zm0-50.711v-47.712h46.159v47.712Zm0-50.712V4053.3h46.159v47.712Zm0-50.712v-47.712h46.159V4050.3Zm0-50.712v-47.713h46.159v47.713Zm0-50.713v-47.712h46.159v47.712Zm0-50.712v-47.712h46.159v47.712Zm0-50.712v-47.712h46.159v47.712Zm0-50.712V3749.03h46.159v47.712Zm0-50.712v-47.713h46.159v47.713Zm0-50.713V3647.6h46.159v47.712Zm0-50.712v-47.711h46.159V3644.6Zm0-50.711v-47.712h46.159v47.712Zm0-50.712V3495.47h46.159v47.712Zm0-50.712v-47.712h46.159v47.712Zm0-50.712v-47.713h46.159v47.713Zm0-50.713v-47.712h46.159v47.712Zm0-50.712v-47.712h46.159v47.712Zm0-50.712v-47.712h46.159v47.712Zm0-50.712V3191.2h46.159v47.712Zm0-50.712v-47.713h46.159V3188.2Zm-3,0h-46.158v-47.713h46.158Zm-49.153,0h-46.159v-47.713h46.159Zm-49.154,0h-46.159v-47.713h46.159Zm-49.154,0h-46.158v-47.713h46.158Zm-49.153,0h-46.159v-47.713h46.159Zm-49.154,0h-46.159v-47.713h46.159Zm-49.154,0H-1658.2v-47.713h46.159Zm-49.154,0h-46.159v-47.713h46.159Zm-49.154,0h-46.158v-47.713h46.158Zm-49.153,0h-46.159v-47.713h46.159Zm-49.154,0h-46.159v-47.713h46.159Zm-49.154,0h-46.159v-47.713h46.159Zm-49.154,0h-46.159v-47.713h46.159Zm-49.154,0h-46.158v-47.713h46.158Zm-49.153,0h-46.159v-47.713h46.159Zm-49.154,0h-46.159v-47.713h46.159Zm-49.154,0h-46.158v-47.713h46.158Zm-49.154,0h-46.158v-47.713h46.158Zm-49.153,0h-46.159v-47.713h46.159Zm-49.154,0H-2297.2v-47.713h46.159Zm-49.154,0h-46.159v-47.713h46.159Zm-49.154,0h-46.158v-47.713h46.158Zm0,3v47.712h-46.158V3191.2Zm-49.153,47.712h-46.159V3191.2h46.159Zm0,3v47.712h-46.159v-47.712Zm0,50.712v47.712h-46.159v-47.712Zm0,50.712v47.712h-46.159v-47.712Zm0,50.712v47.713h-46.159v-47.713Zm0,50.713v47.712h-46.159v-47.712Zm0,50.712v47.712h-46.159V3495.47Zm0,50.712v47.712h-46.159v-47.712Zm0,50.712V3644.6h-46.159v-47.711Zm0,50.711v47.712h-46.159V3647.6Zm0,50.712v47.713h-46.159v-47.713Zm0,50.713v47.712h-46.159V3749.03Zm0,50.712v47.712h-46.159v-47.712Zm0,50.712v47.712h-46.159v-47.712Zm0,50.712v47.712h-46.159v-47.712Zm0,50.712v47.713h-46.159v-47.713Zm0,50.713V4050.3h-46.159v-47.712Zm0,50.712v47.712h-46.159V4053.3Zm0,50.712v47.712h-46.159v-47.712Zm0,50.712v47.711h-46.159v-47.711Zm0,50.711v47.713h-46.159v-47.713Zm0,50.713v47.712h-46.159v-47.712Zm0,50.712v47.712h-46.159v-47.712Zm3,0h46.158v47.712h-46.158Zm46.158,50.712v47.712h-46.158v-47.712Zm3,0h46.159v47.712h-46.159Zm49.154,0h46.159v47.712H-2297.2Zm49.154,0h46.159v47.712h-46.159Zm49.154,0h46.158v47.712h-46.158Zm49.154,0h46.158v47.712h-46.158Zm49.153,0h46.159v47.712h-46.159Zm49.154,0h46.159v47.712h-46.159Zm49.154,0h46.158v47.712h-46.158Zm49.153,0h46.159v47.712h-46.159Zm49.154,0h46.159v47.712h-46.159Zm49.154,0h46.159v47.712h-46.159Zm49.154,0h46.159v47.712h-46.159Zm49.154,0h46.158v47.712h-46.158Zm49.153,0h46.159v47.712h-46.159Zm49.154,0h46.159v47.712H-1658.2Zm49.154,0h46.159v47.712h-46.159Zm49.154,0h46.159v47.712h-46.159Zm49.154,0h46.158v47.712h-46.158Zm49.153,0h46.159v47.712h-46.159Zm49.154,0h46.159v47.712h-46.159Zm49.154,0h46.158v47.712h-46.158Zm49.153,0h46.159v47.712h-46.159Zm0-3v-47.712h46.159v47.712Zm49.154-47.712h46.159v47.712h-46.159Zm0-3v-47.712h46.159v47.712Zm0-50.712v-47.713h46.159v47.713Zm0-50.713v-47.711h46.159v47.711Zm0-50.711v-47.712h46.159v47.712Zm0-50.712V4053.3h46.159v47.712Zm0-50.712v-47.712h46.159V4050.3Zm0-50.712v-47.713h46.159v47.713Zm0-50.713v-47.712h46.159v47.712Zm0-50.712v-47.712h46.159v47.712Zm0-50.712v-47.712h46.159v47.712Zm0-50.712V3749.03h46.159v47.712Zm0-50.712v-47.713h46.159v47.713Zm0-50.713V3647.6h46.159v47.712Zm0-50.712v-47.711h46.159V3644.6Zm0-50.711v-47.712h46.159v47.712Zm0-50.712V3495.47h46.159v47.712Zm0-50.712v-47.712h46.159v47.712Zm0-50.712v-47.713h46.159v47.713Zm0-50.713v-47.712h46.159v47.712Zm0-50.712v-47.712h46.159v47.712Zm0-50.712v-47.712h46.159v47.712Zm0-50.712V3191.2h46.159v47.712Zm0-50.712v-47.713h46.159V3188.2Zm0-50.713v-47.712h46.159v47.712Zm-3,0h-46.159v-47.712h46.159Zm-49.154,0h-46.158v-47.712h46.158Zm-49.153,0h-46.159v-47.712h46.159Zm-49.154,0h-46.159v-47.712h46.159Zm-49.154,0h-46.158v-47.712h46.158Zm-49.153,0h-46.159v-47.712h46.159Zm-49.154,0h-46.159v-47.712h46.159Zm-49.154,0H-1658.2v-47.712h46.159Zm-49.154,0h-46.159v-47.712h46.159Zm-49.154,0h-46.158v-47.712h46.158Zm-49.153,0h-46.159v-47.712h46.159Zm-49.154,0h-46.159v-47.712h46.159Zm-49.154,0h-46.159v-47.712h46.159Zm-49.154,0h-46.159v-47.712h46.159Zm-49.154,0h-46.158v-47.712h46.158Zm-49.153,0h-46.159v-47.712h46.159Zm-49.154,0h-46.159v-47.712h46.159Zm-49.154,0h-46.158v-47.712h46.158Zm-49.154,0h-46.158v-47.712h46.158Zm-49.153,0h-46.159v-47.712h46.159Zm-49.154,0H-2297.2v-47.712h46.159Zm-49.154,0h-46.159v-47.712h46.159Zm-49.154,0h-46.158v-47.712h46.158Zm-49.153,0h-46.159v-47.712h46.159Zm0,3V3188.2h-46.159v-47.713Zm-49.154,47.713h-46.159v-47.713h46.159Zm0,3v47.712h-46.159V3191.2Zm0,50.712v47.712h-46.159v-47.712Zm0,50.712v47.712h-46.159v-47.712Zm0,50.712v47.712h-46.159v-47.712Zm0,50.712v47.713h-46.159v-47.713Zm0,50.713v47.712h-46.159v-47.712Zm0,50.712v47.712h-46.159V3495.47Zm0,50.712v47.712h-46.159v-47.712Zm0,50.712V3644.6h-46.159v-47.711Zm0,50.711v47.712h-46.159V3647.6Zm0,50.712v47.713h-46.159v-47.713Zm0,50.713v47.712h-46.159V3749.03Zm0,50.712v47.712h-46.159v-47.712Zm0,50.712v47.712h-46.159v-47.712Zm0,50.712v47.712h-46.159v-47.712Zm0,50.712v47.713h-46.159v-47.713Zm0,50.713V4050.3h-46.159v-47.712Zm0,50.712v47.712h-46.159V4053.3Zm0,50.712v47.712h-46.159v-47.712Zm0,50.712v47.711h-46.159v-47.711Zm0,50.711v47.713h-46.159v-47.713Zm0,50.713v47.712h-46.159v-47.712Zm0,50.712v47.712h-46.159v-47.712Zm0,50.712v47.712h-46.159v-47.712Zm3,0h46.159v47.712h-46.159Zm46.159,50.712V4456h-46.159v-47.712Zm3,0h46.158V4456h-46.158Zm49.153,0h46.159V4456h-46.159Zm49.154,0h46.159V4456H-2297.2Zm49.154,0h46.159V4456h-46.159Zm49.154,0h46.158V4456h-46.158Zm49.154,0h46.158V4456h-46.158Zm49.153,0h46.159V4456h-46.159Zm49.154,0h46.159V4456h-46.159Zm49.154,0h46.158V4456h-46.158Zm49.153,0h46.159V4456h-46.159Zm49.154,0h46.159V4456h-46.159Zm49.154,0h46.159V4456h-46.159Zm49.154,0h46.159V4456h-46.159Zm49.154,0h46.158V4456h-46.158Zm49.153,0h46.159V4456h-46.159Zm49.154,0h46.159V4456H-1658.2Zm49.154,0h46.159V4456h-46.159Zm49.154,0h46.159V4456h-46.159Zm49.154,0h46.158V4456h-46.158Zm49.153,0h46.159V4456h-46.159Zm49.154,0h46.159V4456h-46.159Zm49.154,0h46.158V4456h-46.158Zm49.153,0h46.159V4456h-46.159Zm49.154,0h46.159V4456h-46.159Zm0-3v-47.712h46.159v47.712Zm49.154-47.712h46.159v47.712h-46.159Zm0-3v-47.712h46.159v47.712Zm0-50.712v-47.712h46.159v47.712Zm0-50.712v-47.713h46.159v47.713Zm0-50.713v-47.711h46.159v47.711Zm0-50.711v-47.712h46.159v47.712Zm0-50.712V4053.3h46.159v47.712Zm0-50.712v-47.712h46.159V4050.3Zm0-50.712v-47.713h46.159v47.713Zm0-50.713v-47.712h46.159v47.712Zm0-50.712v-47.712h46.159v47.712Zm0-50.712v-47.712h46.159v47.712Zm0-50.712V3749.03h46.159v47.712Zm0-50.712v-47.713h46.159v47.713Zm0-50.713V3647.6h46.159v47.712Zm0-50.712v-47.711h46.159V3644.6Zm0-50.711v-47.712h46.159v47.712Zm0-50.712V3495.47h46.159v47.712Zm0-50.712v-47.712h46.159v47.712Zm0-50.712v-47.713h46.159v47.713Zm0-50.713v-47.712h46.159v47.712Zm0-50.712v-47.712h46.159v47.712Zm0-50.712v-47.712h46.159v47.712Zm0-50.712V3191.2h46.159v47.712Zm0-50.712v-47.713h46.159V3188.2Zm0-50.713v-47.712h46.159v47.712Zm0-50.712v-47.711h46.159v47.711Zm-3,0h-46.159v-47.711h46.159Zm-49.154,0h-46.159v-47.711h46.159Zm-49.154,0h-46.158v-47.711h46.158Zm-49.153,0h-46.159v-47.711h46.159Zm-49.154,0h-46.159v-47.711h46.159Zm-49.154,0h-46.158v-47.711h46.158Zm-49.153,0h-46.159v-47.711h46.159Zm-49.154,0h-46.159v-47.711h46.159Zm-49.154,0H-1658.2v-47.711h46.159Zm-49.154,0h-46.159v-47.711h46.159Zm-49.154,0h-46.158v-47.711h46.158Zm-49.153,0h-46.159v-47.711h46.159Zm-49.154,0h-46.159v-47.711h46.159Zm-49.154,0h-46.159v-47.711h46.159Zm-49.154,0h-46.159v-47.711h46.159Zm-49.154,0h-46.158v-47.711h46.158Zm-49.153,0h-46.159v-47.711h46.159Zm-49.154,0h-46.159v-47.711h46.159Zm-49.154,0h-46.158v-47.711h46.158Zm-49.154,0h-46.158v-47.711h46.158Zm-49.153,0h-46.159v-47.711h46.159Zm-49.154,0H-2297.2v-47.711h46.159Zm-49.154,0h-46.159v-47.711h46.159Zm-49.154,0h-46.158v-47.711h46.158Zm-49.153,0h-46.159v-47.711h46.159Zm-49.154,0h-46.159v-47.711h46.159Zm0,3v47.712h-46.159v-47.712Zm-49.154,47.712h-46.159v-47.712h46.159Zm0,3V3188.2h-46.159v-47.713Zm0,50.713v47.712h-46.159V3191.2Zm0,50.712v47.712h-46.159v-47.712Zm0,50.712v47.712h-46.159v-47.712Zm0,50.712v47.712h-46.159v-47.712Zm0,50.712v47.713h-46.159v-47.713Zm0,50.713v47.712h-46.159v-47.712Zm0,50.712v47.712h-46.159V3495.47Zm0,50.712v47.712h-46.159v-47.712Zm0,50.712V3644.6h-46.159v-47.711Zm0,50.711v47.712h-46.159V3647.6Zm0,50.712v47.713h-46.159v-47.713Zm0,50.713v47.712h-46.159V3749.03Zm0,50.712v47.712h-46.159v-47.712Zm0,50.712v47.712h-46.159v-47.712Zm0,50.712v47.712h-46.159v-47.712Zm0,50.712v47.713h-46.159v-47.713Zm0,50.713V4050.3h-46.159v-47.712Zm0,50.712v47.712h-46.159V4053.3Zm0,50.712v47.712h-46.159v-47.712Zm0,50.712v47.711h-46.159v-47.711Zm0,50.711v47.713h-46.159v-47.713Zm0,50.713v47.712h-46.159v-47.712Zm0,50.712v47.712h-46.159v-47.712Zm0,50.712v47.712h-46.159v-47.712Zm0,50.712V4456h-46.159v-47.712Zm3,0h46.159V4456h-46.159Zm46.159,50.712v47.713h-46.159V4459Zm3,0h46.159v47.713h-46.159Zm49.154,0h46.158v47.713h-46.158Zm49.153,0h46.159v47.713h-46.159Zm49.154,0h46.159v47.713H-2297.2Zm49.154,0h46.159v47.713h-46.159Zm49.154,0h46.158v47.713h-46.158Zm49.154,0h46.158v47.713h-46.158Zm49.153,0h46.159v47.713h-46.159Zm49.154,0h46.159v47.713h-46.159Zm49.154,0h46.158v47.713h-46.158Zm49.153,0h46.159v47.713h-46.159Zm49.154,0h46.159v47.713h-46.159Zm49.154,0h46.159v47.713h-46.159Zm49.154,0h46.159v47.713h-46.159Zm49.154,0h46.158v47.713h-46.158Zm49.153,0h46.159v47.713h-46.159Zm49.154,0h46.159v47.713H-1658.2Zm49.154,0h46.159v47.713h-46.159Zm49.154,0h46.159v47.713h-46.159Zm49.154,0h46.158v47.713h-46.158Zm49.153,0h46.159v47.713h-46.159Zm49.154,0h46.159v47.713h-46.159Zm49.154,0h46.158v47.713h-46.158Zm49.153,0h46.159v47.713h-46.159Zm49.154,0h46.159v47.713h-46.159Zm49.154,0h46.159v47.713h-46.159Zm0-3v-47.712h46.159V4456Zm49.154-47.712h46.159V4456h-46.159Zm0-3v-47.712h46.159v47.712Zm0-50.712v-47.712h46.159v47.712Zm0-50.712v-47.712h46.159v47.712Zm0-50.712v-47.713h46.159v47.713Zm0-50.713v-47.711h46.159v47.711Zm0-50.711v-47.712h46.159v47.712Zm0-50.712V4053.3h46.159v47.712Zm0-50.712v-47.712h46.159V4050.3Zm0-50.712v-47.713h46.159v47.713Zm0-50.713v-47.712h46.159v47.712Zm0-50.712v-47.712h46.159v47.712Zm0-50.712v-47.712h46.159v47.712Zm0-50.712V3749.03h46.159v47.712Zm0-50.712v-47.713h46.159v47.713Zm0-50.713V3647.6h46.159v47.712Zm0-50.712v-47.711h46.159V3644.6Zm0-50.711v-47.712h46.159v47.712Zm0-50.712V3495.47h46.159v47.712Zm0-50.712v-47.712h46.159v47.712Zm0-50.712v-47.713h46.159v47.713Zm0-50.713v-47.712h46.159v47.712Zm0-50.712v-47.712h46.159v47.712Zm0-50.712v-47.712h46.159v47.712Zm0-50.712V3191.2h46.159v47.712Zm0-50.712v-47.713h46.159V3188.2Zm0-50.713v-47.712h46.159v47.712Zm0-50.712v-47.711h46.159v47.711Zm0-50.711v-47.712h46.159v47.712Zm-3,0h-46.159v-47.712h46.159Zm-49.154,0h-46.159v-47.712h46.159Zm-49.154,0h-46.159v-47.712h46.159Zm-49.154,0h-46.158v-47.712h46.158Zm-49.153,0h-46.159v-47.712h46.159Zm-49.154,0h-46.159v-47.712h46.159Zm-49.154,0h-46.158v-47.712h46.158Zm-49.153,0h-46.159v-47.712h46.159Zm-49.154,0h-46.159v-47.712h46.159Zm-49.154,0H-1658.2v-47.712h46.159Zm-49.154,0h-46.159v-47.712h46.159Zm-49.154,0h-46.158v-47.712h46.158Zm-49.153,0h-46.159v-47.712h46.159Zm-49.154,0h-46.159v-47.712h46.159Zm-49.154,0h-46.159v-47.712h46.159Zm-49.154,0h-46.159v-47.712h46.159Zm-49.154,0h-46.158v-47.712h46.158Zm-49.153,0h-46.159v-47.712h46.159Zm-49.154,0h-46.159v-47.712h46.159Zm-49.154,0h-46.158v-47.712h46.158Zm-49.154,0h-46.158v-47.712h46.158Zm-49.153,0h-46.159v-47.712h46.159Zm-49.154,0H-2297.2v-47.712h46.159Zm-49.154,0h-46.159v-47.712h46.159Zm-49.154,0h-46.158v-47.712h46.158Zm-49.153,0h-46.159v-47.712h46.159Zm-49.154,0h-46.159v-47.712h46.159Zm-49.154,0h-46.159v-47.712h46.159Zm0,3v47.711h-46.159v-47.711Zm-49.154,47.711h-46.159v-47.711h46.159Zm0,3v47.712h-46.159v-47.712Zm0,50.712V3188.2h-46.159v-47.713Zm0,50.713v47.712h-46.159V3191.2Zm0,50.712v47.712h-46.159v-47.712Zm0,50.712v47.712h-46.159v-47.712Zm0,50.712v47.712h-46.159v-47.712Zm0,50.712v47.713h-46.159v-47.713Zm0,50.713v47.712h-46.159v-47.712Zm0,50.712v47.712h-46.159V3495.47Zm0,50.712v47.712h-46.159v-47.712Zm0,50.712V3644.6h-46.159v-47.711Zm0,50.711v47.712h-46.159V3647.6Zm0,50.712v47.713h-46.159v-47.713Zm0,50.713v47.712h-46.159V3749.03Zm0,50.712v47.712h-46.159v-47.712Zm0,50.712v47.712h-46.159v-47.712Zm0,50.712v47.712h-46.159v-47.712Zm0,50.712v47.713h-46.159v-47.713Zm0,50.713V4050.3h-46.159v-47.712Zm0,50.712v47.712h-46.159V4053.3Zm0,50.712v47.712h-46.159v-47.712Zm0,50.712v47.711h-46.159v-47.711Zm0,50.711v47.713h-46.159v-47.713Zm0,50.713v47.712h-46.159v-47.712Zm0,50.712v47.712h-46.159v-47.712Zm0,50.712v47.712h-46.159v-47.712Zm0,50.712V4456h-46.159v-47.712Zm0,50.712v47.713h-46.159V4459Zm3,0h46.159v47.713h-46.159Zm46.159,50.713v47.712h-46.159v-47.712Zm3,0h46.159v47.712h-46.159Zm49.154,0h46.159v47.712h-46.159Zm49.154,0h46.158v47.712h-46.158Zm49.153,0h46.159v47.712h-46.159Zm49.154,0h46.159v47.712H-2297.2Zm49.154,0h46.159v47.712h-46.159Zm49.154,0h46.158v47.712h-46.158Zm49.154,0h46.158v47.712h-46.158Zm49.153,0h46.159v47.712h-46.159Zm49.154,0h46.159v47.712h-46.159Zm49.154,0h46.158v47.712h-46.158Zm49.153,0h46.159v47.712h-46.159Zm49.154,0h46.159v47.712h-46.159Zm49.154,0h46.159v47.712h-46.159Zm49.154,0h46.159v47.712h-46.159Zm49.154,0h46.158v47.712h-46.158Zm49.153,0h46.159v47.712h-46.159Zm49.154,0h46.159v47.712H-1658.2Zm49.154,0h46.159v47.712h-46.159Zm49.154,0h46.159v47.712h-46.159Zm49.154,0h46.158v47.712h-46.158Zm49.153,0h46.159v47.712h-46.159Zm49.154,0h46.159v47.712h-46.159Zm49.154,0h46.158v47.712h-46.158Zm49.153,0h46.159v47.712h-46.159Zm49.154,0h46.159v47.712h-46.159Zm49.154,0h46.159v47.712h-46.159Zm49.154,0h46.159v47.712h-46.159Zm0-3V4459h46.159v47.713ZM-1117.5,4459h46.158v47.713H-1117.5Zm0-3v-47.712h46.158V4456Zm0-50.712v-47.712h46.158v47.712Zm0-50.712v-47.712h46.158v47.712Zm0-50.712v-47.712h46.158v47.712Zm0-50.712v-47.713h46.158v47.713Zm0-50.713v-47.711h46.158v47.711Zm0-50.711v-47.712h46.158v47.712Zm0-50.712V4053.3h46.158v47.712Zm0-50.712v-47.712h46.158V4050.3Zm0-50.712v-47.713h46.158v47.713Zm0-50.713v-47.712h46.158v47.712Zm0-50.712v-47.712h46.158v47.712Zm0-50.712v-47.712h46.158v47.712Zm0-50.712V3749.03h46.158v47.712Zm0-50.712v-47.713h46.158v47.713Zm0-50.713V3647.6h46.158v47.712Zm0-50.712v-47.711h46.158V3644.6Zm0-50.711v-47.712h46.158v47.712Zm0-50.712V3495.47h46.158v47.712Zm0-50.712v-47.712h46.158v47.712Zm0-50.712v-47.713h46.158v47.713Zm0-50.713v-47.712h46.158v47.712Zm0-50.712v-47.712h46.158v47.712Zm0-50.712v-47.712h46.158v47.712Zm0-50.712V3191.2h46.158v47.712Zm0-50.712v-47.713h46.158V3188.2Zm0-50.713v-47.712h46.158v47.712Zm0-50.712v-47.711h46.158v47.711Zm0-50.711v-47.712h46.158v47.712Zm0-50.712v-47.712h46.158v47.712Zm-3,0h-46.159v-47.712h46.159Zm-49.154,0h-46.159v-47.712h46.159Zm-49.154,0h-46.159v-47.712h46.159Zm-49.154,0h-46.159v-47.712h46.159Zm-49.154,0h-46.158v-47.712h46.158Zm-49.153,0h-46.159v-47.712h46.159Zm-49.154,0h-46.159v-47.712h46.159Zm-49.154,0h-46.158v-47.712h46.158Zm-49.153,0h-46.159v-47.712h46.159Zm-49.154,0h-46.159v-47.712h46.159Zm-49.154,0H-1658.2v-47.712h46.159Zm-49.154,0h-46.159v-47.712h46.159Zm-49.154,0h-46.158v-47.712h46.158Zm-49.153,0h-46.159v-47.712h46.159Zm-49.154,0h-46.159v-47.712h46.159Zm-49.154,0h-46.159v-47.712h46.159Zm-49.154,0h-46.159v-47.712h46.159Zm-49.154,0h-46.158v-47.712h46.158Zm-49.153,0h-46.159v-47.712h46.159Zm-49.154,0h-46.159v-47.712h46.159Zm-49.154,0h-46.158v-47.712h46.158Zm-49.154,0h-46.158v-47.712h46.158Zm-49.153,0h-46.159v-47.712h46.159Zm-49.154,0H-2297.2v-47.712h46.159Zm-49.154,0h-46.159v-47.712h46.159Zm-49.154,0h-46.158v-47.712h46.158Zm-49.153,0h-46.159v-47.712h46.159Zm-49.154,0h-46.159v-47.712h46.159Zm-49.154,0h-46.159v-47.712h46.159Zm-49.154,0h-46.159v-47.712h46.159Zm0,3v47.712h-46.159v-47.712Zm-49.154,47.712h-46.158v-47.712h46.158Zm0,3v47.711h-46.158v-47.711Zm0,50.711v47.712h-46.158v-47.712Zm0,50.712V3188.2h-46.158v-47.713Zm0,50.713v47.712h-46.158V3191.2Zm0,50.712v47.712h-46.158v-47.712Zm0,50.712v47.712h-46.158v-47.712Zm0,50.712v47.712h-46.158v-47.712Zm0,50.712v47.713h-46.158v-47.713Zm0,50.713v47.712h-46.158v-47.712Zm0,50.712v47.712h-46.158V3495.47Zm0,50.712v47.712h-46.158v-47.712Zm0,50.712V3644.6h-46.158v-47.711Zm0,50.711v47.712h-46.158V3647.6Zm0,50.712v47.713h-46.158v-47.713Zm0,50.713v47.712h-46.158V3749.03Zm0,50.712v47.712h-46.158v-47.712Zm0,50.712v47.712h-46.158v-47.712Zm0,50.712v47.712h-46.158v-47.712Zm0,50.712v47.713h-46.158v-47.713Zm0,50.713V4050.3h-46.158v-47.712Zm0,50.712v47.712h-46.158V4053.3Zm0,50.712v47.712h-46.158v-47.712Zm0,50.712v47.711h-46.158v-47.711Zm0,50.711v47.713h-46.158v-47.713Zm0,50.713v47.712h-46.158v-47.712Zm0,50.712v47.712h-46.158v-47.712Zm0,50.712v47.712h-46.158v-47.712Zm0,50.712V4456h-46.158v-47.712Zm0,50.712v47.713h-46.158V4459Zm0,50.713v47.712h-46.158v-47.712Zm3,0h46.159v47.712h-46.159Zm46.159,50.712v47.712h-46.159v-47.712Zm3,0h46.159v47.712h-46.159Zm49.154,0h46.159v47.712h-46.159Zm49.154,0h46.159v47.712h-46.159Zm49.154,0h46.158v47.712h-46.158Zm49.153,0h46.159v47.712h-46.159Zm49.154,0h46.159v47.712H-2297.2Zm49.154,0h46.159v47.712h-46.159Zm49.154,0h46.158v47.712h-46.158Zm49.154,0h46.158v47.712h-46.158Zm49.153,0h46.159v47.712h-46.159Zm49.154,0h46.159v47.712h-46.159Zm49.154,0h46.158v47.712h-46.158Zm49.153,0h46.159v47.712h-46.159Zm49.154,0h46.159v47.712h-46.159Zm49.154,0h46.159v47.712h-46.159Zm49.154,0h46.159v47.712h-46.159Zm49.154,0h46.158v47.712h-46.158Zm49.153,0h46.159v47.712h-46.159Zm49.154,0h46.159v47.712H-1658.2Zm49.154,0h46.159v47.712h-46.159Zm49.154,0h46.159v47.712h-46.159Zm49.154,0h46.158v47.712h-46.158Zm49.153,0h46.159v47.712h-46.159Zm49.154,0h46.159v47.712h-46.159Zm49.154,0h46.158v47.712h-46.158Zm49.153,0h46.159v47.712h-46.159Zm49.154,0h46.159v47.712h-46.159Zm49.154,0h46.159v47.712h-46.159Zm49.154,0h46.159v47.712h-46.159Zm49.154,0h46.158v47.712H-1117.5Zm0-3v-47.712h46.158v47.712Zm49.153-47.712h46.159v47.712h-46.159Zm0-3V4459h46.159v47.713Zm0-50.713v-47.712h46.159V4456Zm0-50.712v-47.712h46.159v47.712Zm0-50.712v-47.712h46.159v47.712Zm0-50.712v-47.712h46.159v47.712Zm0-50.712v-47.713h46.159v47.713Zm0-50.713v-47.711h46.159v47.711Zm0-50.711v-47.712h46.159v47.712Zm0-50.712V4053.3h46.159v47.712Zm0-50.712v-47.712h46.159V4050.3Zm0-50.712v-47.713h46.159v47.713Zm0-50.713v-47.712h46.159v47.712Zm0-50.712v-47.712h46.159v47.712Zm0-50.712v-47.712h46.159v47.712Zm0-50.712V3749.03h46.159v47.712Zm0-50.712v-47.713h46.159v47.713Zm0-50.713V3647.6h46.159v47.712Zm0-50.712v-47.711h46.159V3644.6Zm0-50.711v-47.712h46.159v47.712Zm0-50.712V3495.47h46.159v47.712Zm0-50.712v-47.712h46.159v47.712Zm0-50.712v-47.713h46.159v47.713Zm0-50.713v-47.712h46.159v47.712Zm0-50.712v-47.712h46.159v47.712Zm0-50.712v-47.712h46.159v47.712Zm0-50.712V3191.2h46.159v47.712Zm0-50.712v-47.713h46.159V3188.2Zm0-50.713v-47.712h46.159v47.712Zm0-50.712v-47.711h46.159v47.711Zm0-50.711v-47.712h46.159v47.712Zm0-50.712v-47.712h46.159v47.712Zm0-50.712v-47.713h46.159v47.713Zm-3,0H-1117.5v-47.713h46.158Zm-49.153,0h-46.159v-47.713h46.159Zm-49.154,0h-46.159v-47.713h46.159Zm-49.154,0h-46.159v-47.713h46.159Zm-49.154,0h-46.159v-47.713h46.159Zm-49.154,0h-46.158v-47.713h46.158Zm-49.153,0h-46.159v-47.713h46.159Zm-49.154,0h-46.159v-47.713h46.159Zm-49.154,0h-46.158v-47.713h46.158Zm-49.153,0h-46.159v-47.713h46.159Zm-49.154,0h-46.159v-47.713h46.159Zm-49.154,0H-1658.2v-47.713h46.159Zm-49.154,0h-46.159v-47.713h46.159Zm-49.154,0h-46.158v-47.713h46.158Zm-49.153,0h-46.159v-47.713h46.159Zm-49.154,0h-46.159v-47.713h46.159Zm-49.154,0h-46.159v-47.713h46.159Zm-49.154,0h-46.159v-47.713h46.159Zm-49.154,0h-46.158v-47.713h46.158Zm-49.153,0h-46.159v-47.713h46.159Zm-49.154,0h-46.159v-47.713h46.159Zm-49.154,0h-46.158v-47.713h46.158Zm-49.154,0h-46.158v-47.713h46.158Zm-49.153,0h-46.159v-47.713h46.159Zm-49.154,0H-2297.2v-47.713h46.159Zm-49.154,0h-46.159v-47.713h46.159Zm-49.154,0h-46.158v-47.713h46.158Zm-49.153,0h-46.159v-47.713h46.159Zm-49.154,0h-46.159v-47.713h46.159Zm-49.154,0h-46.159v-47.713h46.159Zm-49.154,0h-46.159v-47.713h46.159Zm-49.154,0h-46.158v-47.713h46.158Zm0,3v47.712h-46.158v-47.712Zm-49.153,47.712h-46.159v-47.712h46.159Zm0,3v47.712h-46.159v-47.712Zm0,50.712v47.711h-46.159v-47.711Zm0,50.711v47.712h-46.159v-47.712Zm0,50.712V3188.2h-46.159v-47.713Zm0,50.713v47.712h-46.159V3191.2Zm0,50.712v47.712h-46.159v-47.712Zm0,50.712v47.712h-46.159v-47.712Zm0,50.712v47.712h-46.159v-47.712Zm0,50.712v47.713h-46.159v-47.713Zm0,50.713v47.712h-46.159v-47.712Zm0,50.712v47.712h-46.159V3495.47Zm0,50.712v47.712h-46.159v-47.712Zm0,50.712V3644.6h-46.159v-47.711Zm0,50.711v47.712h-46.159V3647.6Zm0,50.712v47.713h-46.159v-47.713Zm0,50.713v47.712h-46.159V3749.03Zm0,50.712v47.712h-46.159v-47.712Zm0,50.712v47.712h-46.159v-47.712Zm0,50.712v47.712h-46.159v-47.712Zm0,50.712v47.713h-46.159v-47.713Zm0,50.713V4050.3h-46.159v-47.712Zm0,50.712v47.712h-46.159V4053.3Zm0,50.712v47.712h-46.159v-47.712Zm0,50.712v47.711h-46.159v-47.711Zm0,50.711v47.713h-46.159v-47.713Zm0,50.713v47.712h-46.159v-47.712Zm0,50.712v47.712h-46.159v-47.712Zm0,50.712v47.712h-46.159v-47.712Zm0,50.712V4456h-46.159v-47.712Zm0,50.712v47.713h-46.159V4459Zm0,50.713v47.712h-46.159v-47.712Zm0,50.712v47.712h-46.159v-47.712Zm3,0h46.158v47.712h-46.158Zm46.158,50.712v47.712h-46.158v-47.712Zm3,0h46.159v47.712h-46.159Zm49.154,0h46.159v47.712h-46.159Zm49.154,0h46.159v47.712h-46.159Zm49.154,0h46.159v47.712h-46.159Zm49.154,0h46.158v47.712h-46.158Zm49.153,0h46.159v47.712h-46.159Zm49.154,0h46.159v47.712H-2297.2Zm49.154,0h46.159v47.712h-46.159Zm49.154,0h46.158v47.712h-46.158Zm49.154,0h46.158v47.712h-46.158Zm49.153,0h46.159v47.712h-46.159Zm49.154,0h46.159v47.712h-46.159Zm49.154,0h46.158v47.712h-46.158Zm49.153,0h46.159v47.712h-46.159Zm49.154,0h46.159v47.712h-46.159Zm49.154,0h46.159v47.712h-46.159Zm49.154,0h46.159v47.712h-46.159Zm49.154,0h46.158v47.712h-46.158Zm49.153,0h46.159v47.712h-46.159Zm49.154,0h46.159v47.712H-1658.2Zm49.154,0h46.159v47.712h-46.159Zm49.154,0h46.159v47.712h-46.159Zm49.154,0h46.158v47.712h-46.158Zm49.153,0h46.159v47.712h-46.159Zm49.154,0h46.159v47.712h-46.159Zm49.154,0h46.158v47.712h-46.158Zm49.153,0h46.159v47.712h-46.159Zm49.154,0h46.159v47.712h-46.159Zm49.154,0h46.159v47.712h-46.159Zm49.154,0h46.159v47.712h-46.159Zm49.154,0h46.158v47.712H-1117.5Zm49.153,0h46.159v47.712h-46.159Zm0-3v-47.712h46.159v47.712Zm49.154-47.712h46.159v47.712H-1019.2Zm0-3v-47.712h46.159v47.712Zm0-50.712V4459h46.159v47.713Zm0-50.713v-47.712h46.159V4456Zm0-50.712v-47.712h46.159v47.712Zm0-50.712v-47.712h46.159v47.712Zm0-50.712v-47.712h46.159v47.712Zm0-50.712v-47.713h46.159v47.713Zm0-50.713v-47.711h46.159v47.711Zm0-50.711v-47.712h46.159v47.712Zm0-50.712V4053.3h46.159v47.712Zm0-50.712v-47.712h46.159V4050.3Zm0-50.712v-47.713h46.159v47.713Zm0-50.713v-47.712h46.159v47.712Zm0-50.712v-47.712h46.159v47.712Zm0-50.712v-47.712h46.159v47.712Zm0-50.712V3749.03h46.159v47.712Zm0-50.712v-47.713h46.159v47.713Zm0-50.713V3647.6h46.159v47.712Zm0-50.712v-47.711h46.159V3644.6Zm0-50.711v-47.712h46.159v47.712Zm0-50.712V3495.47h46.159v47.712Zm0-50.712v-47.712h46.159v47.712Zm0-50.712v-47.713h46.159v47.713Zm0-50.713v-47.712h46.159v47.712Zm0-50.712v-47.712h46.159v47.712Zm0-50.712v-47.712h46.159v47.712Zm0-50.712V3191.2h46.159v47.712Zm0-50.712v-47.713h46.159V3188.2Zm0-50.713v-47.712h46.159v47.712Zm0-50.712v-47.711h46.159v47.711Zm0-50.711v-47.712h46.159v47.712Zm0-50.712v-47.712h46.159v47.712Zm0-50.712v-47.713h46.159v47.713Zm0-50.713v-47.712h46.159v47.712Zm-3,0h-46.159v-47.712h46.159Zm-49.154,0H-1117.5v-47.712h46.158Zm-49.153,0h-46.159v-47.712h46.159Zm-49.154,0h-46.159v-47.712h46.159Zm-49.154,0h-46.159v-47.712h46.159Zm-49.154,0h-46.159v-47.712h46.159Zm-49.154,0h-46.158v-47.712h46.158Zm-49.153,0h-46.159v-47.712h46.159Zm-49.154,0h-46.159v-47.712h46.159Zm-49.154,0h-46.158v-47.712h46.158Zm-49.153,0h-46.159v-47.712h46.159Zm-49.154,0h-46.159v-47.712h46.159Zm-49.154,0H-1658.2v-47.712h46.159Zm-49.154,0h-46.159v-47.712h46.159Zm-49.154,0h-46.158v-47.712h46.158Zm-49.153,0h-46.159v-47.712h46.159Zm-49.154,0h-46.159v-47.712h46.159Zm-49.154,0h-46.159v-47.712h46.159Zm-49.154,0h-46.159v-47.712h46.159Zm-49.154,0h-46.158v-47.712h46.158Zm-49.153,0h-46.159v-47.712h46.159Zm-49.154,0h-46.159v-47.712h46.159Zm-49.154,0h-46.158v-47.712h46.158Zm-49.154,0h-46.158v-47.712h46.158Zm-49.153,0h-46.159v-47.712h46.159Zm-49.154,0H-2297.2v-47.712h46.159Zm-49.154,0h-46.159v-47.712h46.159Zm-49.154,0h-46.158v-47.712h46.158Zm-49.153,0h-46.159v-47.712h46.159Zm-49.154,0h-46.159v-47.712h46.159Zm-49.154,0h-46.159v-47.712h46.159Zm-49.154,0h-46.159v-47.712h46.159Zm-49.154,0h-46.158v-47.712h46.158Zm-49.153,0h-46.159v-47.712h46.159Zm0,3v47.713h-46.159v-47.713Zm-49.154,47.713h-46.159v-47.713h46.159Zm0,3v47.712h-46.159v-47.712Zm0,50.712v47.712h-46.159v-47.712Zm0,50.712v47.711h-46.159v-47.711Zm0,50.711v47.712h-46.159v-47.712Zm0,50.712V3188.2h-46.159v-47.713Zm0,50.713v47.712h-46.159V3191.2Zm0,50.712v47.712h-46.159v-47.712Zm0,50.712v47.712h-46.159v-47.712Zm0,50.712v47.712h-46.159v-47.712Zm0,50.712v47.713h-46.159v-47.713Zm0,50.713v47.712h-46.159v-47.712Zm0,50.712v47.712h-46.159V3495.47Zm0,50.712v47.712h-46.159v-47.712Zm0,50.712V3644.6h-46.159v-47.711Zm0,50.711v47.712h-46.159V3647.6Zm0,50.712v47.713h-46.159v-47.713Zm0,50.713v47.712h-46.159V3749.03Zm0,50.712v47.712h-46.159v-47.712Zm0,50.712v47.712h-46.159v-47.712Zm0,50.712v47.712h-46.159v-47.712Zm0,50.712v47.713h-46.159v-47.713Zm0,50.713V4050.3h-46.159v-47.712Zm0,50.712v47.712h-46.159V4053.3Zm0,50.712v47.712h-46.159v-47.712Zm0,50.712v47.711h-46.159v-47.711Zm0,50.711v47.713h-46.159v-47.713Zm0,50.713v47.712h-46.159v-47.712Zm0,50.712v47.712h-46.159v-47.712Zm0,50.712v47.712h-46.159v-47.712Zm0,50.712V4456h-46.159v-47.712Zm0,50.712v47.713h-46.159V4459Zm0,50.713v47.712h-46.159v-47.712Zm0,50.712v47.712h-46.159v-47.712Zm0,50.712v47.712h-46.159v-47.712Zm3,0h46.159v47.712h-46.159Zm46.159,50.712v47.712h-46.159v-47.712Zm3,0h46.158v47.712h-46.158Zm49.153,0h46.159v47.712h-46.159Zm49.154,0h46.159v47.712h-46.159Zm49.154,0h46.159v47.712h-46.159Zm49.154,0h46.159v47.712h-46.159Zm49.154,0h46.158v47.712h-46.158Zm49.153,0h46.159v47.712h-46.159Zm49.154,0h46.159v47.712H-2297.2Zm49.154,0h46.159v47.712h-46.159Zm49.154,0h46.158v47.712h-46.158Zm49.154,0h46.158v47.712h-46.158Zm49.153,0h46.159v47.712h-46.159Zm49.154,0h46.159v47.712h-46.159Zm49.154,0h46.158v47.712h-46.158Zm49.153,0h46.159v47.712h-46.159Zm49.154,0h46.159v47.712h-46.159Zm49.154,0h46.159v47.712h-46.159Zm49.154,0h46.159v47.712h-46.159Zm49.154,0h46.158v47.712h-46.158Zm49.153,0h46.159v47.712h-46.159Zm49.154,0h46.159v47.712H-1658.2Zm49.154,0h46.159v47.712h-46.159Zm49.154,0h46.159v47.712h-46.159Zm49.154,0h46.158v47.712h-46.158Zm49.153,0h46.159v47.712h-46.159Zm49.154,0h46.159v47.712h-46.159Zm49.154,0h46.158v47.712h-46.158Zm49.153,0h46.159v47.712h-46.159Zm49.154,0h46.159v47.712h-46.159Zm49.154,0h46.159v47.712h-46.159Zm49.154,0h46.159v47.712h-46.159Zm49.154,0h46.158v47.712H-1117.5Zm49.153,0h46.159v47.712h-46.159Zm49.154,0h46.159v47.712H-1019.2Zm0-3v-47.712h46.159v47.712Zm49.154-47.712h46.159v47.712h-46.159Zm0-3v-47.712h46.159v47.712Zm0-50.712v-47.712h46.159v47.712Zm0-50.712V4459h46.159v47.713Zm0-50.713v-47.712h46.159V4456Zm0-50.712v-47.712h46.159v47.712Zm0-50.712v-47.712h46.159v47.712Zm0-50.712v-47.712h46.159v47.712Zm0-50.712v-47.713h46.159v47.713Zm0-50.713v-47.711h46.159v47.711Zm0-50.711v-47.712h46.159v47.712Zm0-50.712V4053.3h46.159v47.712Zm0-50.712v-47.712h46.159V4050.3Zm0-50.712v-47.713h46.159v47.713Zm0-50.713v-47.712h46.159v47.712Zm0-50.712v-47.712h46.159v47.712Zm0-50.712v-47.712h46.159v47.712Zm0-50.712V3749.03h46.159v47.712Zm0-50.712v-47.713h46.159v47.713Zm0-50.713V3647.6h46.159v47.712Zm0-50.712v-47.711h46.159V3644.6Zm0-50.711v-47.712h46.159v47.712Zm0-50.712V3495.47h46.159v47.712Zm0-50.712v-47.712h46.159v47.712Zm0-50.712v-47.713h46.159v47.713Zm0-50.713v-47.712h46.159v47.712Zm0-50.712v-47.712h46.159v47.712Zm0-50.712v-47.712h46.159v47.712Zm0-50.712V3191.2h46.159v47.712Zm0-50.712v-47.713h46.159V3188.2Zm0-50.713v-47.712h46.159v47.712Zm0-50.712v-47.711h46.159v47.711Zm0-50.711v-47.712h46.159v47.712Zm0-50.712v-47.712h46.159v47.712Zm0-50.712v-47.713h46.159v47.713Zm0-50.713v-47.712h46.159v47.712Zm0-50.712V2785.5h46.159v47.712Zm-3,0H-1019.2V2785.5h46.159Zm-49.154,0h-46.159V2785.5h46.159Zm-49.154,0H-1117.5V2785.5h46.158Zm-49.153,0h-46.159V2785.5h46.159Zm-49.154,0h-46.159V2785.5h46.159Zm-49.154,0h-46.159V2785.5h46.159Zm-49.154,0h-46.159V2785.5h46.159Zm-49.154,0h-46.158V2785.5h46.158Zm-49.153,0h-46.159V2785.5h46.159Zm-49.154,0h-46.159V2785.5h46.159Zm-49.154,0h-46.158V2785.5h46.158Zm-49.153,0h-46.159V2785.5h46.159Zm-49.154,0h-46.159V2785.5h46.159Zm-49.154,0H-1658.2V2785.5h46.159Zm-49.154,0h-46.159V2785.5h46.159Zm-49.154,0h-46.158V2785.5h46.158Zm-49.153,0h-46.159V2785.5h46.159Zm-49.154,0h-46.159V2785.5h46.159Zm-49.154,0h-46.159V2785.5h46.159Zm-49.154,0h-46.159V2785.5h46.159Zm-49.154,0h-46.158V2785.5h46.158Zm-49.153,0h-46.159V2785.5h46.159Zm-49.154,0h-46.159V2785.5h46.159Zm-49.154,0h-46.158V2785.5h46.158Zm-49.154,0h-46.158V2785.5h46.158Zm-49.153,0h-46.159V2785.5h46.159Zm-49.154,0H-2297.2V2785.5h46.159Zm-49.154,0h-46.159V2785.5h46.159Zm-49.154,0h-46.158V2785.5h46.158Zm-49.153,0h-46.159V2785.5h46.159Zm-49.154,0h-46.159V2785.5h46.159Zm-49.154,0h-46.159V2785.5h46.159Zm-49.154,0h-46.159V2785.5h46.159Zm-49.154,0h-46.158V2785.5h46.158Zm-49.153,0h-46.159V2785.5h46.159Zm-49.154,0h-46.159V2785.5h46.159Zm0,3v47.712h-46.159v-47.712Zm-49.154,47.712h-46.159v-47.712h46.159Zm0,3v47.713h-46.159v-47.713Zm0,50.713v47.712h-46.159v-47.712Zm0,50.712v47.712h-46.159v-47.712Zm0,50.712v47.711h-46.159v-47.711Zm0,50.711v47.712h-46.159v-47.712Zm0,50.712V3188.2h-46.159v-47.713Zm0,50.713v47.712h-46.159V3191.2Zm0,50.712v47.712h-46.159v-47.712Zm0,50.712v47.712h-46.159v-47.712Zm0,50.712v47.712h-46.159v-47.712Zm0,50.712v47.713h-46.159v-47.713Zm0,50.713v47.712h-46.159v-47.712Zm0,50.712v47.712h-46.159V3495.47Zm0,50.712v47.712h-46.159v-47.712Zm0,50.712V3644.6h-46.159v-47.711Zm0,50.711v47.712h-46.159V3647.6Zm0,50.712v47.713h-46.159v-47.713Zm0,50.713v47.712h-46.159V3749.03Zm0,50.712v47.712h-46.159v-47.712Zm0,50.712v47.712h-46.159v-47.712Zm0,50.712v47.712h-46.159v-47.712Zm0,50.712v47.713h-46.159v-47.713Zm0,50.713V4050.3h-46.159v-47.712Zm0,50.712v47.712h-46.159V4053.3Zm0,50.712v47.712h-46.159v-47.712Zm0,50.712v47.711h-46.159v-47.711Zm0,50.711v47.713h-46.159v-47.713Zm0,50.713v47.712h-46.159v-47.712Zm0,50.712v47.712h-46.159v-47.712Zm0,50.712v47.712h-46.159v-47.712Zm0,50.712V4456h-46.159v-47.712Zm0,50.712v47.713h-46.159V4459Zm0,50.713v47.712h-46.159v-47.712Zm0,50.712v47.712h-46.159v-47.712Zm0,50.712v47.712h-46.159v-47.712Zm0,50.712v47.712h-46.159v-47.712Zm3,0h46.159v47.712h-46.159Zm46.159,50.712v47.712h-46.159V4712.56Zm3,0h46.159v47.712h-46.159Zm49.154,0h46.158v47.712h-46.158Zm49.153,0h46.159v47.712h-46.159Zm49.154,0h46.159v47.712h-46.159Zm49.154,0h46.159v47.712h-46.159Zm49.154,0h46.159v47.712h-46.159Zm49.154,0h46.158v47.712h-46.158Zm49.153,0h46.159v47.712h-46.159Zm49.154,0h46.159v47.712H-2297.2Zm49.154,0h46.159v47.712h-46.159Zm49.154,0h46.158v47.712h-46.158Zm49.154,0h46.158v47.712h-46.158Zm49.153,0h46.159v47.712h-46.159Zm49.154,0h46.159v47.712h-46.159Zm49.154,0h46.158v47.712h-46.158Zm49.153,0h46.159v47.712h-46.159Zm49.154,0h46.159v47.712h-46.159Zm49.154,0h46.159v47.712h-46.159Zm49.154,0h46.159v47.712h-46.159Zm49.154,0h46.158v47.712h-46.158Zm49.153,0h46.159v47.712h-46.159Zm49.154,0h46.159v47.712H-1658.2Zm49.154,0h46.159v47.712h-46.159Zm49.154,0h46.159v47.712h-46.159Zm49.154,0h46.158v47.712h-46.158Zm49.153,0h46.159v47.712h-46.159Zm49.154,0h46.159v47.712h-46.159Zm49.154,0h46.158v47.712h-46.158Zm49.153,0h46.159v47.712h-46.159Zm49.154,0h46.159v47.712h-46.159Zm49.154,0h46.159v47.712h-46.159Zm49.154,0h46.159v47.712h-46.159Zm49.154,0h46.158v47.712H-1117.5Zm49.153,0h46.159v47.712h-46.159Zm49.154,0h46.159v47.712H-1019.2Zm49.154,0h46.159v47.712h-46.159Zm0-3v-47.712h46.159v47.712Zm49.154-47.712h46.159v47.712h-46.159Zm0-3v-47.712h46.159v47.712Zm0-50.712v-47.712h46.159v47.712Zm0-50.712v-47.712h46.159v47.712Zm0-50.712V4459h46.159v47.713Zm0-50.713v-47.712h46.159V4456Zm0-50.712v-47.712h46.159v47.712Zm0-50.712v-47.712h46.159v47.712Zm0-50.712v-47.712h46.159v47.712Zm0-50.712v-47.713h46.159v47.713Zm0-50.713v-47.711h46.159v47.711Zm0-50.711v-47.712h46.159v47.712Zm0-50.712V4053.3h46.159v47.712Zm0-50.712v-47.712h46.159V4050.3Zm0-50.712v-47.713h46.159v47.713Zm0-50.713v-47.712h46.159v47.712Zm0-50.712v-47.712h46.159v47.712Zm0-50.712v-47.712h46.159v47.712Zm0-50.712V3749.03h46.159v47.712Zm0-50.712v-47.713h46.159v47.713Zm0-50.713V3647.6h46.159v47.712Zm0-50.712v-47.711h46.159V3644.6Zm0-50.711v-47.712h46.159v47.712Zm0-50.712V3495.47h46.159v47.712Zm0-50.712v-47.712h46.159v47.712Zm0-50.712v-47.713h46.159v47.713Zm0-50.713v-47.712h46.159v47.712Zm0-50.712v-47.712h46.159v47.712Zm0-50.712v-47.712h46.159v47.712Zm0-50.712V3191.2h46.159v47.712Zm0-50.712v-47.713h46.159V3188.2Zm0-50.713v-47.712h46.159v47.712Zm0-50.712v-47.711h46.159v47.711Zm0-50.711v-47.712h46.159v47.712Zm0-50.712v-47.712h46.159v47.712Zm0-50.712v-47.713h46.159v47.713Zm0-50.713v-47.712h46.159v47.712ZM-2742.58,2785.5v47.712h-46.159V2785.5Zm-46.159,1927.06h46.159v47.712h-46.159Zm1867.85,47.712V4712.56h46.159v47.712Z" transform="translate(2791.734 -2782.5)"/></svg>